{
  "accessors": [
    {
      "bufferView": 2,
      "componentType": 5126,
      "count": 13420,
      "max": [
        48.85334014892578,
        92.32685089111328,
        8.77068042755127
      ],
      "min": [
        -48.83018112182617,
        24.382539749145508,
        -9.566574096679688
      ],
      "type": "VEC3"
    },
    {
      "bufferView": 2,
      "byteOffset": 161040,
      "componentType": 5126,
      "count": 13420,
      "max": [
        1.0,
        1.0,
        1.0
      ],
      "min": [
        -1.0,
        -1.0,
        -1.0
      ],
      "type": "VEC3"
    },
    {
      "bufferView": 3,
      "componentType": 5126,
      "count": 13420,
      "max": [
        1.0,
        1.0,
        1.0,
        1.0
      ],
      "min": [
        -1.0,
        -1.0,
        -1.0,
        -1.0
      ],
      "type": "VEC4"
    },
    {
      "bufferView": 1,
      "componentType": 5126,
      "count": 13420,
      "max": [
        0.9900000095367432,
        0.9147999882698059
      ],
      "min": [
        0.009200000204145908,
        0.05939999967813492
      ],
      "type": "VEC2"
    },
    {
      "bufferView": 1,
      "byteOffset": 107360,
      "componentType": 5126,
      "count": 13420,
      "max": [
        0.9900000095367432,
        0.9147999882698059
      ],
      "min": [
        0.009200000204145908,
        0.05939999967813492
      ],
      "type": "VEC2"
    },
    {
      "bufferView": 1,
      "byteOffset": 214720,
      "componentType": 5126,
      "count": 13420,
      "max": [
        0.9900000095367432,
        0.9147999882698059
      ],
      "min": [
        0.009200000204145908,
        0.05939999967813492
      ],
      "type": "VEC2"
    },
    {
      "bufferView": 0,
      "componentType": 5125,
      "count": 38220,
      "type": "SCALAR"
    },
    {
      "bufferView": 2,
      "byteOffset": 322080,
      "componentType": 5126,
      "count": 416,
      "max": [
        50.25128173828125,
        98.37480926513672,
        9.257142066955566
      ],
      "min": [
        -50.25128173828125,
        -0.0007315201219171286,
        -13.460700035095215
      ],
      "type": "VEC3"
    },
    {
      "bufferView": 2,
      "byteOffset": 327072,
      "componentType": 5126,
      "count": 416,
      "max": [
        1.0,
        1.0,
        1.0
      ],
      "min": [
        -1.0,
        -1.0,
        -1.0
      ],
      "type": "VEC3"
    },
    {
      "bufferView": 3,
      "byteOffset": 214720,
      "componentType": 5126,
      "count": 416,
      "max": [
        1.0,
        1.0,
        0.999788761138916,
        1.0
      ],
      "min": [
        -0.9998264908790588,
        -1.0,
        -0.999788761138916,
        1.0
      ],
      "type": "VEC4"
    },
    {
      "bufferView": 1,
      "byteOffset": 322080,
      "componentType": 5126,
      "count": 416,
      "max": [
        0.7315999865531921,
        0.9901000261306763
      ],
      "min": [
        0.015799999237060547,
        0.007199999876320362
      ],
      "type": "VEC2"
    },
    {
      "bufferView": 1,
      "byteOffset": 325408,
      "componentType": 5126,
      "count": 416,
      "max": [
        0.7315999865531921,
        0.9901000261306763
      ],
      "min": [
        0.015799999237060547,
        0.007199999876320362
      ],
      "type": "VEC2"
    },
    {
      "bufferView": 1,
      "byteOffset": 328736,
      "componentType": 5126,
      "count": 416,
      "max": [
        0.7315999865531921,
        0.9901000261306763
      ],
      "min": [
        0.015799999237060547,
        0.007199999876320362
      ],
      "type": "VEC2"
    },
    {
      "bufferView": 0,
      "byteOffset": 152880,
      "componentType": 5125,
      "count": 1440,
      "type": "SCALAR"
    }
  ],
  "asset": {
    "extras": {
      "author": "local.yany (https://sketchfab.com/local.yany)",
      "license": "CC-BY-4.0 (http://creativecommons.org/licenses/by/4.0/)",
      "source": "https://sketchfab.com/3d-models/book-shelf-b8b7bbd067ea4d70a5a530a8e8051c73",
      "title": "book shelf"
    },
    "generator": "Sketchfab-16.16.0",
    "version": "2.0"
  },
  "bufferViews": [
    {
      "buffer": 0,
      "byteLength": 158640,
      "name": "floatBufferViews",
      "target": 34963
    },
    {
      "buffer": 0,
      "byteLength": 332064,
      "byteOffset": 158640,
      "byteStride": 8,
      "name": "floatBufferViews",
      "target": 34962
    },
    {
      "buffer": 0,
      "byteLength": 332064,
      "byteOffset": 490704,
      "byteStride": 12,
      "name": "floatBufferViews",
      "target": 34962
    },
    {
      "buffer": 0,
      "byteLength": 221376,
      "byteOffset": 822768,
      "byteStride": 16,
      "name": "floatBufferViews",
      "target": 34962
    }
  ],
  "buffers": [
    {
      "byteLength": 1044144,
      "uri": "scene.bin"
    }
  ],
  "images": [
    {
      "uri": "textures/Books_baseColor.jpeg"
    },
    {
      "uri": "textures/Books_normal.png"
    },
    {
      "uri": "textures/BookShelf_baseColor.jpeg"
    },
    {
      "uri": "textures/BookShelf_normal.png"
    }
  ],
  "materials": [
    {
      "doubleSided": true,
      "name": "Books",
      "normalTexture": {
        "index": 1
      },
      "pbrMetallicRoughness": {
        "baseColorTexture": {
          "index": 0
        },
        "metallicFactor": 0.0,
        "roughnessFactor": 0.6605887450304573
      }
    },
    {
      "doubleSided": true,
      "name": "BookShelf",
      "normalTexture": {
        "index": 3
      },
      "pbrMetallicRoughness": {
        "baseColorTexture": {
          "index": 2
        },
        "metallicFactor": 0.0,
        "roughnessFactor": 0.6605887450304573
      }
    }
  ],
  "meshes": [
    {
      "name": "book_shelf.Shape_Books_0",
      "primitives": [
        {
          "attributes": {
            "NORMAL": 1,
            "POSITION": 0,
            "TANGENT": 2,
            "TEXCOORD_0": 3,
            "TEXCOORD_1": 4,
            "TEXCOORD_2": 5
          },
          "indices": 6,
          "material": 0,
          "mode": 4
        }
      ]
    },
    {
      "name": "book_shelf.Shape_BookShelf_0",
      "primitives": [
        {
          "attributes": {
            "NORMAL": 8,
            "POSITION": 7,
            "TANGENT": 9,
            "TEXCOORD_0": 10,
            "TEXCOORD_1": 11,
            "TEXCOORD_2": 12
          },
          "indices": 13,
          "material": 1,
          "mode": 4
        }
      ]
    }
  ],
  "nodes": [
    {
      "children": [
        1
      ],
      "matrix": [
        1.0,
        0.0,
        0.0,
        0.0,
        0.0,
        2.220446049250313e-16,
        -1.0,
        0.0,
        0.0,
        1.0,
        2.220446049250313e-16,
        0.0,
        0.0,
        0.0,
        0.0,
        1.0
      ],
      "name": "Sketchfab_model"
    },
    {
      "children": [
        2
      ],
      "matrix": [
        0.009999999776482582,
        0.0,
        0.0,
        0.0,
        0.0,
        0.0,
        0.009999999776482582,
        0.0,
        0.0,
        -0.009999999776482582,
        0.0,
        0.0,
        0.0,
        0.0,
        0.0,
        1.0
      ],
      "name": "Book shelf.fbx"
    },
    {
      "children": [
        3
      ],
      "name": "RootNode"
    },
    {
      "children": [
        4
      ],
      "name": "book_shelf"
    },
    {
      "children": [
        5,
        6
      ],
      "name": "book_shelf.Shape"
    },
    {
      "mesh": 0,
      "name": "book_shelf.Shape_Books_0"
    },
    {
      "mesh": 1,
      "name": "book_shelf.Shape_BookShelf_0"
    }
  ],
  "samplers": [
    {
      "magFilter": 9729,
      "minFilter": 9987,
      "wrapS": 10497,
      "wrapT": 10497
    }
  ],
  "scene": 0,
  "scenes": [
    {
      "name": "Sketchfab_Scene",
      "nodes": [
        0
      ]
    }
  ],
  "textures": [
    {
      "sampler": 0,
      "source": 0
    },
    {
      "sampler": 0,
      "source": 1
    },
    {
      "sampler": 0,
      "source": 2
    },
    {
      "sampler": 0,
      "source": 3
    }
  ]
}
